<?xml version="1.0" encoding="UTF-8"?>
<!-- Generator: Adobe Illustrator 19.2.0, SVG Export Plug-In . SVG Version: 6.00 Build 0)  -->
<!DOCTYPE svg PUBLIC "-//W3C//DTD SVG 1.1//EN" "http://www.w3.org/Graphics/SVG/1.1/DTD/svg11.dtd">
<svg xmlns="http://www.w3.org/2000/svg" xmlns:xlink="http://www.w3.org/1999/xlink" xmlns:dc="http://purl.org/dc/elements/1.1/" xmlns:cc="http://creativecommons.org/ns#" xmlns:rdf="http://www.w3.org/1999/02/22-rdf-syntax-ns#" version="1.1" id="DESIGNS" x="0px" y="0px" width="32px" height="32px" viewBox="0 0 32 32" style="enable-background:new 0 0 32 32;" xml:space="preserve">
<title property="dc:title">to filter</title><desc property="dc:description">An icon for "filter" from the Hatch series on to [icon]. Downloaded from http://www.toicon.com/icons/hatch_filter by 127.0.0.1 on 2017-07-10. Licensed CC-BY, see http://toicon.com/license/ for details.</desc>
<g>
	<path class="hatch_twee" d="M18,17.904v1.414l-5,5v-1.414L18,17.904z M13,18.904v1.414l8.363-8.363l2.828-4.242L13,18.904z    M13,26.904v1.414l5-5v-1.414L13,26.904z M23.318,2h-1.414L10.562,13.343l0.566,0.848L23.318,2z M19.318,2h-1.414l-8.943,8.943   l0.566,0.848L19.318,2z M7.318,2H5.904L4.162,3.743l0.566,0.848L7.318,2z M27.318,2h-1.414L12.162,15.743l0.566,0.848L27.318,2z    M11.318,2H9.904L5.762,6.143l0.566,0.848L11.318,2z M15.318,2h-1.414L7.362,8.543l0.566,0.848L15.318,2z" style="fill: #FFC5BB;"/>
	<path class="hatch_een" d="M18,17v9l-5,5V17L3,2h25L18,17z M3,1C2.631,1,2.292,1.203,2.118,1.528s-0.155,0.72,0.05,1.027L12,17.303   V31c0,0.404,0.244,0.769,0.617,0.924C12.741,31.975,12.871,32,13,32c0.26,0,0.516-0.102,0.707-0.293l5-5   C18.895,26.52,19,26.265,19,26v-8.697l9.832-14.748c0.205-0.307,0.224-0.701,0.05-1.027S28.369,1,28,1H3z" style="fill: #265AA5;"/>
</g>
<metadata><work rdf:about=""><format>image/svg+xml</format><type rdf:resource="http://purl.org/dc/dcmitype/StillImage"/><license rdf:resource="http://creativecommons.org/licenses/by/4.0/"/><attributionname>Carol Liao</attributionname><attributionurl>http://www.toicon.com/icons/hatch_filter</attributionurl></work></metadata></svg>
